<svg version="1.1" xmlns="http://www.w3.org/2000/svg" viewBox="0 0 632.166748046875 545.8333358764648" width="632.166748046875" height="545.8333358764648">
  <!-- svg-source:excalidraw -->
  
  <defs>
    <style>
      @font-face {
        font-family: "Virgil";
        src: url("https://excalidraw.com/Virgil.woff2");
      }
      @font-face {
        font-family: "Cascadia";
        src: url("https://excalidraw.com/Cascadia.woff2");
      }
    </style>
  </defs>
  <rect x="0" y="0" width="632.166748046875" height="545.8333358764648" fill="#ffffff"></rect><g stroke-linecap="round" transform="translate(244.50003051757812 252.83333587646484) rotate(0 73.66665649414062 34.33332824707031)"><path d="M0 0 C0 0, 0 0, 0 0 M0 0 C0 0, 0 0, 0 0 M-1.05 6.65 C1.02 4.22, 2.94 2.24, 5.04 1.11 M-0.52 6.7 C2.02 4.48, 3.22 2.03, 4.63 0.3 M-0.8 12.15 C4.08 9.25, 4.54 6.72, 10.24 1.49 M0.2 12.09 C2.93 8.62, 5.83 4.05, 10.44 -0.61 M0.43 18.8 C4.38 14.92, 7.36 9.38, 15.13 0.63 M0.7 18.23 C3.15 13.06, 7.42 8.08, 16.59 0.02 M1.01 25.66 C5.82 17.15, 10.81 14.16, 21.98 -1.11 M-0.1 23.26 C7.83 14.11, 17.29 5.33, 20.57 -0.3 M1.89 30.52 C9.96 18.77, 21.9 7.32, 24.26 1.57 M-0.49 30.85 C9.09 20.06, 16.73 11, 26.31 0.07 M-1 35.87 C11.74 26.22, 21.95 10.23, 30.45 1.13 M0.66 37.21 C11.16 21.93, 23.64 8.38, 32.69 0.48 M-0.96 44.31 C10.96 30.11, 24.28 15.63, 38.56 -1.26 M-0.51 42.38 C14.05 27.36, 27.21 11.31, 36.75 -0.19 M1.42 47.86 C15.42 30.57, 30.57 14.97, 43.4 -0.77 M-0.27 48.44 C16.24 30.63, 32.71 10.69, 42.48 -0.57 M0.83 55.7 C13.39 42.99, 21.55 27.02, 47.18 0.24 M0.79 55.22 C14.59 37.45, 30.67 18.91, 48.11 1.21 M1.89 59.35 C18.4 40.3, 37.56 18.82, 54.78 -0.77 M-0.92 60.28 C13.96 46.78, 26.89 30.43, 52.87 0.44 M1.69 68.37 C15.77 51.89, 32.01 31.63, 56.36 -1.43 M0.11 66.6 C20.09 45.61, 39.93 22.47, 58.28 -0.17 M1.73 69.47 C17.9 51.19, 31.88 35.47, 62.62 0.59 M3.03 70.56 C16.98 54.38, 33.35 36.89, 62.97 0.46 M5.94 72.08 C21.56 52.99, 37.47 36.91, 67.42 0.65 M8.21 69.43 C21.87 55.61, 33.4 40.71, 67.88 -0.24 M13.97 70.44 C30.38 50.33, 46.4 33.69, 75.04 -1.82 M13.17 70.38 C26.95 51.87, 44.09 35.28, 75.12 0.46 M16.96 69.36 C36.13 49.61, 52.62 31.76, 78.8 1.78 M17.94 70.07 C33.03 53.2, 48.85 37.65, 79.21 0.62 M21.62 72.28 C39.9 52.92, 54.69 32.78, 84.28 0.26 M23.73 69.75 C44.3 46.21, 66.06 20.61, 85.86 0.49 M29.44 68.38 C46.81 48.25, 64.55 28, 92.01 -0.29 M29.66 70.13 C48.33 48.43, 66.22 26.86, 89.27 0.6 M35.34 69.59 C48.62 57.54, 59.98 42.35, 96.64 -1.48 M34.14 71.42 C48.34 55.82, 61.07 41.84, 94.91 0.62 M38.85 69.68 C53.87 52.02, 69.9 32.96, 101.66 0.54 M39.54 70.25 C54.13 55.64, 65.87 40.42, 100.79 -0.58 M42.85 69.36 C59.01 51.97, 78.24 35.65, 106.54 -1.96 M45.56 69.67 C66.73 47.14, 87.45 21.8, 106.23 -0.02 M48.05 71.99 C67.53 51.98, 82.79 32.75, 109.46 0.83 M49.3 70.86 C72.89 43.19, 94.87 16.16, 111.17 -0.63 M54.99 69 C76.17 45.39, 101.71 19.35, 117.82 0.05 M55.85 71.35 C69.54 53.95, 84.86 37.53, 116.29 0.49 M59.98 71.15 C85.09 43.95, 109.07 14.86, 122.21 1.5 M59.83 70.22 C77.53 50.66, 96.87 29.42, 121.54 0.26 M67.68 70.34 C77.66 53.75, 91.67 40.82, 128.39 0.95 M66.56 70.83 C89.63 42.66, 112.62 15.94, 127.75 0.87 M71.72 70.7 C94.78 43.59, 116.81 17.39, 133.81 1.92 M70.26 71.83 C88.61 49.44, 106.61 30.33, 131.73 0.47 M75.95 69.6 C97.9 46.27, 116.8 22.73, 136.29 -1.21 M75.94 71.06 C95.71 49.72, 112.88 28.76, 138.52 0.14 M83.08 72.8 C98.1 54.62, 112.85 34.56, 143.24 1.83 M81.58 70.55 C104.1 45.03, 127.42 18.75, 143.24 -0.1 M87.9 71.41 C105.04 48.06, 122.99 28.17, 148.3 0.28 M87.97 70.5 C104.32 50.76, 123.44 29.13, 147.33 -0.38 M93.96 69.03 C108.38 55.42, 121.82 35.88, 146.68 6.19 M92.97 70.24 C112.16 48.01, 132.11 24.42, 148.42 5.82 M98.75 70.79 C117.87 50.16, 133.48 26.37, 146.15 12.36 M97.31 70.18 C110.31 56.05, 122.04 41.79, 147 13.49 M102.38 70.4 C117.15 56.25, 128.69 39.48, 148.61 20.05 M102.84 70.83 C111.09 60.35, 120.81 49.55, 148.5 18.72 M108.79 71.2 C120.51 56.38, 134.37 40.77, 146.62 24.97 M108.33 70.69 C120.73 55.82, 133.6 41.42, 147.48 24.58 M114.42 69.29 C126 56.92, 139.16 40.89, 147.91 31.1 M113.76 71.29 C120.86 61.99, 128.42 52.33, 148.71 29.88 M117.41 70.49 C127.65 60.4, 137.48 50.78, 148.11 37.78 M118.1 71.12 C126.01 63.91, 131.49 56.74, 147.49 38.1 M122.28 69.5 C129.13 63.95, 136.75 54.94, 147.27 45.49 M123.55 70.63 C130.53 62.78, 136.49 57.4, 146.74 44.15 M129.12 70.89 C133.77 64.11, 138.83 61.49, 149.8 51.14 M129.4 70.15 C133.79 64.66, 140.59 58.82, 148.59 49.55 M134.25 72.24 C138.22 68.13, 143.22 60.96, 146.46 57.48 M134.21 70.92 C138.46 65.34, 143.5 61.11, 146.93 54.68 M139.81 69.57 C142.35 67.42, 143.13 64.62, 148.62 60.96 M139.94 70.72 C141.93 68.19, 143.64 66.07, 147.8 60.78 M145.17 70.54 C145.98 69.31, 147.19 68.7, 148.01 67.71 M145.22 70.57 C145.94 69.77, 146.7 69.11, 147.81 67.79" stroke="#fab005" stroke-width="0.5" fill="none"></path><path d="M1.38 0.03 C40.6 -0.85, 81.49 -1.16, 145.99 0.61 M-0.05 0.03 C46.61 -0.31, 95.16 -0.95, 147.98 -0.97 M145.64 -0.34 C146.24 18.04, 145.94 36.05, 145.35 70.55 M146.54 -0.88 C146.94 20.97, 146.92 42.79, 147.93 68.45 M146.93 67.57 C90.93 70.39, 33.69 67.43, -1.9 70.52 M147.24 69.3 C99.79 69.87, 53.89 69.82, -0.35 68.81 M-0.5 66.84 C-2.38 49.91, -1.73 25.38, -1.07 0.69 M0.32 68.62 C0.22 52.03, 0.47 36.62, 0.68 0.32" stroke="#000000" stroke-width="1" fill="none"></path></g><g transform="translate(273.66668701171875 274.66666412353516) rotate(0 44.5 12.5)"><text x="44.5" y="18" font-family="Virgil, Segoe UI Emoji" font-size="20px" fill="#000000" text-anchor="middle" style="white-space: pre;" direction="ltr">Treasury</text></g><g stroke-linecap="round" transform="translate(265.16668701171875 117.16663360595703) rotate(0 73.66665649414062 34.33332824707031)"><path d="M-1.07 0.69 C57.19 0.95, 118.23 2.04, 147.25 0.13 M0.68 0.32 C35.73 0.56, 72.44 -0.54, 147.58 -0.5 M146.52 0.81 C147.04 19.55, 145.64 37.16, 148.37 67.81 M147.98 0.32 C147.38 24.95, 147.67 48.66, 147.65 68.31 M147.47 70.54 C110.8 68.72, 72.39 66.43, 1.51 70.65 M146.44 68.51 C91.11 68.3, 35.25 68.31, 0.07 69.55 M-0.49 70.57 C0.14 47.87, 2.19 28.17, 0.13 -0.8 M-0.24 67.95 C0.19 46.19, 1.26 23.65, 0.18 0.1" stroke="#000000" stroke-width="1" fill="none"></path></g><g transform="translate(298.8333435058594 136.99996185302734) rotate(0 40 14.5)"><text x="40" y="22" font-family="Virgil, Segoe UI Emoji" font-size="20px" fill="#000000" text-anchor="middle" style="white-space: pre;" direction="ltr">決策支援</text></g><g stroke-linecap="round" transform="translate(474.83343505859375 160.49996185302734) rotate(0 73.66665649414062 34.33332824707031)"><path d="M0.98 -1.4 C38.26 1.03, 75.64 1.22, 147.44 1.75 M0.13 0.3 C52.78 0.3, 107.18 -0.45, 147.39 -0.63 M148.32 0.72 C146.67 22.58, 149.96 43.68, 145.73 68.97 M146.74 -0.95 C146.65 14.57, 148.11 28.96, 146.97 68.81 M146.86 70.61 C106.89 68.71, 65.33 69.18, -1.29 66.72 M147.5 69.49 C106.88 68.48, 65.97 69.09, -0.57 69.18 M1.16 67.36 C1.55 49.32, -1.79 29.59, -1.62 -1.46 M-0.53 68.38 C0.58 42.16, 0.73 13.09, 0.83 0.05" stroke="#000000" stroke-width="1" fill="none"></path></g><g transform="translate(488.5000915527344 182.33329010009766) rotate(0 60 14.5)"><text x="60" y="22" font-family="Virgil, Segoe UI Emoji" font-size="20px" fill="#000000" text-anchor="middle" style="white-space: pre;" direction="ltr">客戶關係管理</text></g><g stroke-linecap="round" transform="translate(119.16665649414062 429.8333206176758) rotate(0 73.66665649414062 34.33332824707031)"><path d="M0.33 1.64 C41.29 0.73, 81.67 1.96, 146.19 1.03 M0.58 -0.65 C41.43 0.25, 80.38 -0.15, 146.53 -0.73 M146.28 -0.56 C147.87 28.88, 148.18 52.64, 148.99 68.76 M146.38 -0.31 C146.61 22.23, 146.41 45.17, 148.32 68.04 M147.19 69.11 C115.19 70.15, 78.77 70.47, 0.99 69.59 M146.95 68.86 C117.28 69.23, 88.96 67.96, 0.15 68.17 M1.26 68.15 C-0.59 46.61, 1.47 28.38, 0.62 -1.63 M0.64 68.65 C0.49 53.36, -0.94 36.44, -0.22 -0.5" stroke="#000000" stroke-width="1" fill="none"></path></g><g transform="translate(132.83331298828125 451.6666488647461) rotate(0 60 14.5)"><text x="60" y="22" font-family="Virgil, Segoe UI Emoji" font-size="20px" fill="#000000" text-anchor="middle" style="white-space: pre;" direction="ltr">各處績效管理</text></g><g stroke-linecap="round" transform="translate(45.500030517578125 172.50000762939453) rotate(0 73.66665649414062 34.33332824707031)"><path d="M1.84 0.66 C54.75 -1.86, 111.14 -0.97, 148.94 1.16 M-0.55 0.9 C45.8 0.27, 93.02 -0.32, 148.18 -0.76 M146.04 -0.28 C149.21 25.89, 148.24 50.67, 147.08 67.76 M148.11 -0.53 C148.26 22.93, 148.49 47.19, 147.77 68.35 M147.03 67.72 C88.89 68.75, 31.6 66.92, -0.08 67.8 M147.61 69.24 C112.64 68.35, 75.7 66.88, -0.16 68.67 M1.04 69.99 C-1.37 47.85, 0.68 23.53, 1.2 1.98 M0.94 67.86 C-0.3 44.62, -0.29 20.17, 0.81 -0.3" stroke="#000000" stroke-width="1" fill="none"></path></g><g transform="translate(99.16668701171875 194.33333587646484) rotate(0 20 14.5)"><text x="20" y="22" font-family="Virgil, Segoe UI Emoji" font-size="20px" fill="#000000" text-anchor="middle" style="white-space: pre;" direction="ltr">承銷</text></g><g stroke-linecap="round" transform="translate(466.83331298828125 285.4999465942383) rotate(0 73.66665649414062 34.33332824707031)"><path d="M-1.75 1.62 C38.57 1.03, 75.48 -0.78, 146.57 0.54 M0.36 -0.92 C50.63 -0.05, 102.15 -1.01, 148.15 0.77 M147.76 -1.9 C148.21 18.73, 148.18 38.94, 149.31 68.29 M147.98 -0.14 C148.49 20.6, 147.73 41.5, 146.58 69.18 M148.67 67.62 C119.23 68.8, 88.08 68.04, 0.97 67.5 M147.47 69.45 C117.22 67.56, 86.19 68.42, -0.76 69.6 M-0.8 68.11 C-0.87 51.43, 0.05 32.75, 1 0.49 M-0.1 68.67 C1.22 53.88, -0.3 38.99, 0.13 -0.63" stroke="#000000" stroke-width="1" fill="none"></path></g><g transform="translate(499.4999694824219 307.3332748413086) rotate(0 41 14.5)"><text x="41" y="22" font-family="Virgil, Segoe UI Emoji" font-size="20px" fill="#000000" text-anchor="middle" style="white-space: pre;" direction="ltr">交易B2C</text></g><g transform="translate(208 10) rotate(0 127.5 20.5)"><text x="0" y="30" font-family="Virgil, Segoe UI Emoji" font-size="28px" fill="#000000" text-anchor="start" style="white-space: pre;" direction="ltr">債券部 Eco System</text></g><g stroke-linecap="round"><g transform="translate(127 60) rotate(0 204.08432248966304 -1.092874298617244)"><path d="M0.05 -0.32 C68.36 -0.67, 341.21 -1.65, 409.56 -1.87 M-1.39 -1.53 C66.78 -1.78, 340 -0.97, 408.49 -0.82" stroke="#000000" stroke-width="1" fill="none"></path></g></g><g stroke-linecap="round" transform="translate(10 311.99998474121094) rotate(0 73.66665649414062 34.33332824707031)"><path d="M-0.37 -1 C40.53 0.49, 79.92 -1.72, 148.6 -1.66 M-0.63 -0.1 C33.29 -0.34, 66.66 -2.09, 147.25 0.4 M148.52 -1.77 C146.37 15.46, 148.44 33.98, 145.99 69.02 M148.03 0.7 C146.56 25.15, 148.24 49.1, 147.16 69.1 M147.13 67.26 C105.46 70.62, 61.06 69.23, 0.12 69.29 M147.55 69.27 C110.53 70.44, 72.83 68.9, 0.87 69.42 M-1.86 69.03 C2.29 42.52, 0.67 15.32, -0.09 -0.34 M0.81 69.24 C-0.35 50.2, -0.16 30.3, -0.43 0.25" stroke="#000000" stroke-width="1" fill="none"></path></g><g transform="translate(33.666656494140625 333.83331298828125) rotate(0 50 14.5)"><text x="50" y="22" font-family="Virgil, Segoe UI Emoji" font-size="20px" fill="#000000" text-anchor="middle" style="white-space: pre;" direction="ltr">結構型商品</text></g><g stroke-linecap="round" transform="translate(354.8333740234375 425.50000762939453) rotate(0 73.66665649414062 34.33332824707031)"><path d="M1.61 -1.95 C44.34 -1.23, 89.8 0.19, 147.52 -1.44 M-0.6 -0.18 C34.05 -0.92, 69.06 0.11, 146.56 -0.76 M147.48 -1.03 C147.97 13.6, 147.31 28.48, 147.73 67.97 M147.69 -0.73 C147.14 13.63, 147.14 26.75, 146.52 68.16 M146.84 68.02 C98.58 70.05, 48.81 68.99, -1.52 68.91 M147.02 68.62 C104.56 67.91, 62.91 68.57, 0.9 68.94 M0.22 69.38 C0.17 46.4, 0.4 23.02, -1.48 0.92 M0.1 68.82 C0.6 43.43, -0.42 18.59, 0.78 -0.44" stroke="#000000" stroke-width="1" fill="none"></path></g><g transform="translate(408.5000305175781 447.33333587646484) rotate(0 20 14.5)"><text x="20" y="22" font-family="Virgil, Segoe UI Emoji" font-size="20px" fill="#000000" text-anchor="middle" style="white-space: pre;" direction="ltr">其它</text></g><g transform="translate(357.8333435058594 506.83333587646484) rotate(0 116.5 14.5)"><text x="0" y="22" font-family="Virgil, Segoe UI Emoji" font-size="20px" fill="#000000" text-anchor="start" style="white-space: pre;" direction="ltr">交割、申報、風管、會計…</text></g><g stroke-linecap="round"><g transform="translate(316.5000305175781 252.49999237060547) rotate(0 1.4243790728412478 -33.687068794127555)"><path d="M0.44 -0.43 C1.07 -11.13, 3.46 -54.07, 3.64 -65 M-0.79 -1.7 C-0.22 -12.71, 2.44 -56.39, 3.2 -66.95" stroke="#000000" stroke-width="1" fill="none"></path></g><g transform="translate(316.5000305175781 252.49999237060547) rotate(0 1.4243790728412478 -33.687068794127555)"><path d="M10.89 -36.53 C9.92 -48.39, 5.86 -52.83, 3.76 -67.36 M12.55 -38.93 C9.45 -45.06, 7.51 -50.83, 2.75 -67.76" stroke="#000000" stroke-width="1" fill="none"></path></g><g transform="translate(316.5000305175781 252.49999237060547) rotate(0 1.4243790728412478 -33.687068794127555)"><path d="M-9.59 -37.87 C-4.67 -49.41, -2.84 -53.47, 3.76 -67.36 M-7.93 -40.26 C-6.5 -45.98, -3.91 -51.46, 2.75 -67.76" stroke="#000000" stroke-width="1" fill="none"></path></g></g><g stroke-linecap="round"><g transform="translate(391.8333435058594 281.1666488647461) rotate(0 41.358594635501504 -33.206900897156444)"><path d="M-0.97 -1.11 C12.96 -11.97, 69.35 -54.64, 83.69 -65.71 M0.72 0.92 C14.45 -10.22, 68.55 -56.07, 82.58 -67.34" stroke="#000000" stroke-width="1" fill="none"></path></g><g transform="translate(391.8333435058594 281.1666488647461) rotate(0 41.358594635501504 -33.206900897156444)"><path d="M65.56 -41.97 C73.81 -47.56, 75.46 -56.64, 80.9 -67.65 M66.47 -42.31 C73.36 -49.65, 77.94 -57.72, 82.1 -67.6" stroke="#000000" stroke-width="1" fill="none"></path></g><g transform="translate(391.8333435058594 281.1666488647461) rotate(0 41.358594635501504 -33.206900897156444)"><path d="M52.47 -57.78 C64.71 -58.37, 70.41 -62.55, 80.9 -67.65 M53.39 -58.11 C64.5 -60.22, 73.4 -63.07, 82.1 -67.6" stroke="#000000" stroke-width="1" fill="none"></path></g></g><g stroke-linecap="round"><g transform="translate(393.1667175292969 309.83333587646484) rotate(0 37.84027338363228 15.367069695461566)"><path d="M-0.31 0.65 C12.5 5.49, 63.3 24.71, 75.99 29.74 M1.73 -0.05 C14.52 4.85, 63.12 25.4, 75.39 30.79" stroke="#000000" stroke-width="1" fill="none"></path></g><g transform="translate(393.1667175292969 309.83333587646484) rotate(0 37.84027338363228 15.367069695461566)"><path d="M46.52 30.2 C50.62 30.41, 59.2 27.95, 74.67 31.28 M44.84 29.4 C53.44 29.94, 62.59 31.29, 75.89 30.65" stroke="#000000" stroke-width="1" fill="none"></path></g><g transform="translate(393.1667175292969 309.83333587646484) rotate(0 37.84027338363228 15.367069695461566)"><path d="M54.61 11.34 C57 15.76, 63.76 17.54, 74.67 31.28 M52.93 10.54 C59.35 16.43, 66.17 23.21, 75.89 30.65" stroke="#000000" stroke-width="1" fill="none"></path></g></g><g stroke-linecap="round"><g transform="translate(345.8333435058594 322.49999237060547) rotate(0 19.429916225131592 52.51579155933112)"><path d="M-0.56 0.34 C5.83 17.76, 30.82 87.04, 37.15 104.24 M1.35 -0.53 C8.22 17.08, 33.58 88.09, 39.42 105.56" stroke="#000000" stroke-width="1" fill="none"></path></g><g transform="translate(345.8333435058594 322.49999237060547) rotate(0 19.429916225131592 52.51579155933112)"><path d="M21.02 80.89 C23.54 86.17, 26.21 91.37, 40.46 107.41 M20.38 82.92 C24.79 86.68, 28.42 91.84, 38.73 106.44" stroke="#000000" stroke-width="1" fill="none"></path></g><g transform="translate(345.8333435058594 322.49999237060547) rotate(0 19.429916225131592 52.51579155933112)"><path d="M40.41 74.15 C38.98 80.7, 37.73 87.27, 40.46 107.41 M39.76 76.17 C39.81 81.62, 39.13 88.28, 38.73 106.44" stroke="#000000" stroke-width="1" fill="none"></path></g></g><g stroke-linecap="round"><g transform="translate(291.8333435058594 322.49999237060547) rotate(0 -33.44258519952183 54.9913907315582)"><path d="M1.06 -0.86 C-10.07 17.75, -56.04 92.2, -67.57 110.84 M0.16 1.3 C-10.97 19.65, -56.49 91.19, -67.95 109.16" stroke="#000000" stroke-width="1" fill="none"></path></g><g transform="translate(291.8333435058594 322.49999237060547) rotate(0 -33.44258519952183 54.9913907315582)"><path d="M-62.9 81.69 C-61.8 87.76, -63.1 95.75, -69.78 108.88 M-60.83 80.5 C-64.22 89.23, -66.38 99.9, -68.7 109.75" stroke="#000000" stroke-width="1" fill="none"></path></g><g transform="translate(291.8333435058594 322.49999237060547) rotate(0 -33.44258519952183 54.9913907315582)"><path d="M-45.59 92.71 C-48.5 96.33, -53.89 101.72, -69.78 108.88 M-43.52 91.52 C-52.64 96.74, -60.48 103.8, -68.7 109.75" stroke="#000000" stroke-width="1" fill="none"></path></g></g><g stroke-linecap="round"><g transform="translate(242.50003051757812 316.49999237060547) rotate(0 -42.01752474451436 13.087655810825538)"><path d="M0.48 0.61 C-13.54 4.9, -69.59 20.65, -83.72 24.95 M-0.73 -0.11 C-14.92 4.41, -70.45 22.16, -84.51 26.29" stroke="#000000" stroke-width="1" fill="none"></path></g><g transform="translate(242.50003051757812 316.49999237060547) rotate(0 -42.01752474451436 13.087655810825538)"><path d="M-59.58 8.65 C-69.32 13.9, -74.85 21.81, -83.4 25.35 M-60.39 9.06 C-66.44 13.75, -73.68 17.44, -84.07 27.16" stroke="#000000" stroke-width="1" fill="none"></path></g><g transform="translate(242.50003051757812 316.49999237060547) rotate(0 -42.01752474451436 13.087655810825538)"><path d="M-53.53 28.26 C-65.17 26.99, -72.71 28.38, -83.4 25.35 M-54.35 28.67 C-62 27.88, -70.93 26.1, -84.07 27.16" stroke="#000000" stroke-width="1" fill="none"></path></g></g><g stroke-linecap="round"><g transform="translate(244.50003051757812 263.1666488647461) rotate(0 -25.199016522113254 -23.128918370231986)"><path d="M-0.71 -0.41 C-9.26 -8.03, -43.39 -38.3, -51.52 -45.85 M1.12 -1.67 C-7.04 -9.11, -40.8 -37.42, -49.26 -44.58" stroke="#000000" stroke-width="1" fill="none"></path></g><g transform="translate(244.50003051757812 263.1666488647461) rotate(0 -25.199016522113254 -23.128918370231986)"><path d="M-21.77 -35.69 C-29.97 -35.42, -37.8 -40.3, -51.13 -46.52 M-20.25 -34.85 C-30.06 -38.15, -39.18 -39.88, -50.03 -45.14" stroke="#000000" stroke-width="1" fill="none"></path></g><g transform="translate(244.50003051757812 263.1666488647461) rotate(0 -25.199016522113254 -23.128918370231986)"><path d="M-35 -20 C-39.41 -24.12, -43.47 -33.47, -51.13 -46.52 M-33.48 -19.16 C-38.88 -27.79, -43.6 -34.74, -50.03 -45.14" stroke="#000000" stroke-width="1" fill="none"></path></g></g></svg>