<svg version="1.1" xmlns="http://www.w3.org/2000/svg" viewBox="0 0 691.9804951034114 550.0000152587891" width="691.9804951034114" height="550.0000152587891">
  <!-- svg-source:excalidraw -->
  
  <defs>
    <style>
      @font-face {
        font-family: "Virgil";
        src: url("https://excalidraw.com/Virgil.woff2");
      }
      @font-face {
        font-family: "Cascadia";
        src: url("https://excalidraw.com/Cascadia.woff2");
      }
    </style>
  </defs>
  <rect x="0" y="0" width="691.9804951034114" height="550.0000152587891" fill="#ffffff"></rect><g stroke-linecap="round" transform="translate(289.38859598819164 79.33334350585938) rotate(0 35.333343505859375 24)"><path d="M0.56 -3.99 C24.91 0.94, 49.41 -4.01, 74.51 0.9 M0.7 -1.08 C20.28 2, 40.12 1.88, 69.81 -1.02 M67.84 -3.89 C73.27 16.45, 69.12 30.56, 73.96 50.99 M71.1 -1.63 C69.12 16.52, 70.43 35.79, 71.72 46.44 M70.83 50.6 C45.58 48.27, 15.71 43.8, 2.07 50 M69.26 47.91 C50.67 48.36, 36.1 50.66, -1.73 47.4 M2.63 47.54 C-1.98 39.59, 1.22 26.12, -1.63 -2.8 M-1.44 49.74 C-0.48 38.51, -1.79 26.86, 1.86 1.76" stroke="#000000" stroke-width="1" fill="none"></path></g><g transform="translate(302.38859598819164 88.83334350585938) rotate(0 20 14.5)"><text x="20" y="22" font-family="Virgil, Segoe UI Emoji" font-size="20px" fill="#000000" text-anchor="middle" style="white-space: pre;" direction="ltr">台債</text></g><g stroke-linecap="round" transform="translate(292.05525248233226 145.33334350585938) rotate(0 35.333343505859375 24)"><path d="M1.05 -3.07 C22.89 5.23, 47.71 4.87, 67.97 3.04 M0.61 1.97 C19.58 0.14, 43.9 1.8, 68.99 -0.73 M74.5 -0.37 C68.48 9.59, 73.94 18.9, 66.75 44.38 M69 1.31 C70.77 13.74, 71.18 26.21, 68.68 48.23 M67.78 44.23 C55.17 42.95, 42.1 44.27, 1.71 51.48 M71.94 49.95 C41.99 47.96, 16.71 46.7, 0.22 49.13 M0.51 46.98 C-3.7 27.1, -1.86 8.41, 2.44 0.31 M-1.34 46.89 C0.86 31.98, 0.51 14.73, 0.08 0.39" stroke="#000000" stroke-width="1" fill="none"></path></g><g transform="translate(307.3885654706135 153.5) rotate(0 20 14.5)"><text x="20" y="22" font-family="Virgil, Segoe UI Emoji" font-size="20px" fill="#000000" text-anchor="middle" style="white-space: pre;" direction="ltr">外債</text></g><g stroke-linecap="round" transform="translate(293.05525248233226 417.0000305175781) rotate(0 35.333343505859375 24)"><path d="M-1.86 -2.5 C21.84 1.14, 41.43 2.42, 67.21 -2.68 M0.89 1.84 C17.35 -0.7, 33.28 -0.7, 70.27 -0.64 M70.99 -0.81 C73.82 16.51, 69.38 24.36, 70.6 45.3 M71.65 1.74 C70.91 12.98, 71.03 27.54, 71.85 46.35 M72.6 44.74 C47.7 43.66, 23.16 46.84, 3.37 47.57 M72.24 48.73 C45.94 47.37, 23.44 47.71, -1.61 47.32 M1.09 50.26 C2.41 36.21, -3.79 23.99, 2.71 0.77 M1.87 46.19 C1.71 37.58, -0.14 25.23, 0.81 -0.36" stroke="#000000" stroke-width="1" fill="none"></path></g><g transform="translate(311.3885654706135 426.16668701171875) rotate(0 20 14.5)"><text x="20" y="22" font-family="Virgil, Segoe UI Emoji" font-size="20px" fill="#000000" text-anchor="middle" style="white-space: pre;" direction="ltr">票券</text></g><g stroke-linecap="round" transform="translate(290.8885807294026 277.66664123535156) rotate(0 35.333343505859375 24)"><path d="M0.76 -2.06 C10.62 -2.13, 27.9 3.06, 67.99 -2.43 M-0.16 -1.19 C28.05 -2.35, 52.92 -0.41, 70.44 -0.85 M70.74 2.48 C68.19 15.02, 68.42 25.18, 69.18 45.86 M70.05 0.88 C70.12 11.99, 72.28 26.18, 71.4 46.7 M71.16 47.6 C46.15 46.17, 20.2 52.94, 3.46 51.05 M69.1 49.61 C44.1 50.87, 19.78 50.51, -1.51 48.19 M0.07 51.89 C0.91 29.32, -0.77 9.62, 2.33 -0.06 M1.15 48.69 C-0.12 28.07, 0.48 8.2, -0.66 -1.5" stroke="#000000" stroke-width="1" fill="none"></path></g><g transform="translate(299.7218937176838 287.8332977294922) rotate(0 26.5 12.5)"><text x="26.5" y="18" font-family="Virgil, Segoe UI Emoji" font-size="20px" fill="#000000" text-anchor="middle" style="white-space: pre;" direction="ltr">CBAS</text></g><g stroke-linecap="round" transform="translate(293.05525248233226 346.3333282470703) rotate(0 35.333343505859375 24)"><path d="M-0.63 2.28 C14.89 -1.4, 38.03 -0.28, 71.97 -0.33 M0.27 0.05 C16.77 0.48, 32.97 -0.05, 68.99 0.04 M69.08 1.26 C68.74 15.24, 68.72 36.94, 70.67 46.76 M71.75 1.02 C70.89 15.21, 71.74 31.73, 72.17 48.25 M73.85 51.88 C53.64 50.03, 32.55 46.16, 3.9 44.87 M72.29 49.13 C42.27 49.24, 18.69 47.21, -0.39 48.04 M-1.65 46.98 C2.33 28.87, 3.81 10.13, 2.5 2.31 M0.54 46.14 C-0.64 30.45, 0.49 16.92, 1.06 -1.28" stroke="#000000" stroke-width="1" fill="none"></path></g><g transform="translate(305.3885654706135 357.49998474121094) rotate(0 20 14.5)"><text x="20" y="22" font-family="Virgil, Segoe UI Emoji" font-size="20px" fill="#000000" text-anchor="middle" style="white-space: pre;" direction="ltr">外匯</text></g><g stroke-linecap="round" transform="translate(571.0552829999103 115.66668701171875) rotate(0 42 23)"><path d="M2.26 0.72 C28.76 2.19, 63.36 -1.02, 80.2 -3.15 M1.5 -1.8 C19.91 0.61, 42.54 -1.92, 83.78 1.13 M81.4 3.39 C81.86 17.42, 86.17 33.91, 84.64 47.89 M82.79 1.68 C82.8 13.7, 83.4 28.04, 82.31 45.19 M84.89 43.89 C49.8 48.5, 19 49.53, -1.41 44.82 M85.42 47.2 C58.82 47.54, 34.95 49.52, -1.44 44.33 M0.65 47.18 C1 37.17, 2.7 21.83, -3.4 -1.72 M1.96 47.89 C-1.9 35.19, -1.79 24.24, -1.96 0.13" stroke="#000000" stroke-width="1" fill="none"></path></g><g transform="translate(590.5552829999103 124.16668701171875) rotate(0 20.5 12.5)"><text x="20.5" y="18" font-family="Virgil, Segoe UI Emoji" font-size="20px" fill="#000000" text-anchor="middle" style="white-space: pre;" direction="ltr">AML</text></g><g stroke-linecap="round" transform="translate(591.0552829999103 303) rotate(0 42 23)"><path d="M-2.21 1 C18.98 -3.58, 34.57 0.61, 84.16 3.11 M0.98 1.92 C23.67 1.21, 44.45 -0.06, 85.23 1.91 M82.93 0.46 C83.88 11.68, 83.99 24.43, 86.46 46.36 M85.65 0.06 C85.56 11.79, 82.46 19.42, 82.96 45.1 M80.25 45.51 C66.74 45.19, 52.21 48.09, -3.51 44.56 M85.92 47.98 C65.21 46.18, 47.48 48.56, 1.3 45.19 M-0.39 47.39 C-1.57 26.14, -1.58 15.88, -1.39 -3.24 M1.96 47.67 C0.33 33.61, 0.78 22.7, 0.35 -1.48" stroke="#000000" stroke-width="1" fill="none"></path></g><g transform="translate(613.0552829999103 313.5) rotate(0 20 14.5)"><text x="20" y="22" font-family="Virgil, Segoe UI Emoji" font-size="20px" fill="#000000" text-anchor="middle" style="white-space: pre;" direction="ltr">風控</text></g><g stroke-linecap="round"><g transform="translate(266.38862650576976 54) rotate(0 66.28373302481134 0.5152635147980575)"><path d="M0.05 0.76 C22.51 0.68, 111.76 -0.16, 133.94 -0.22 M-1.38 0.11 C21.08 0.2, 111.18 1.51, 133.49 1.2" stroke="#364fc7" stroke-width="1" fill="none"></path></g></g><g transform="translate(276.38862650576976 10) rotate(0 56 20)"><text x="0" y="30" font-family="Virgil, Segoe UI Emoji" font-size="28px" fill="#364fc7" text-anchor="start" style="white-space: pre;" direction="ltr">現有系統</text></g><g stroke-linecap="round" transform="translate(578.3886265057697 209) rotate(0 42 23)"><path d="M3.56 0.22 C32.59 2.28, 55.53 -1.84, 86.32 1.64 M-0.13 0.66 C33.33 2.52, 64.7 -0.31, 84.98 -1.84 M84.43 3.04 C83.22 10.55, 85.57 18.39, 82.99 43.54 M82.46 -0.11 C82.14 15.2, 84.08 32.03, 82.33 46.44 M83.02 47.18 C62.59 46, 40.69 44.31, -3.01 49.32 M84.08 45.77 C65.14 44.98, 42.3 45.01, 1.49 46.46 M3.23 48.23 C2.66 34.5, -1.12 23.33, -2.65 -2.9 M1.31 44.81 C0.84 27.57, 0.23 12.07, 0.25 0.19" stroke="#000000" stroke-width="1" fill="none"></path></g><g transform="translate(582.8886265057697 215.5) rotate(0 35 14.5)"><text x="35" y="22" font-family="Virgil, Segoe UI Emoji" font-size="20px" fill="#000000" text-anchor="middle" style="white-space: pre;" direction="ltr">TR申報</text></g><g stroke-linecap="round"><g transform="translate(339.5355065276787 428.0784979515709) rotate(0 113.52649898656887 -130.62161531991325)"><path d="M-0.54 -0.57 C36.82 -44.3, 187.39 -219.34, 225.2 -262.99 M1.37 1.75 C39.04 -41.77, 190.19 -217.88, 227.59 -261.69" stroke="#e67700" stroke-width="1" fill="none"></path></g><g transform="translate(339.5355065276787 428.0784979515709) rotate(0 113.52649898656887 -130.62161531991325)"><path d="M216.1 -234.61 C220.51 -243.54, 225.44 -254.72, 227.97 -263.18 M216.34 -234.04 C221.31 -244.81, 225.69 -255.26, 227.07 -262.6" stroke="#e67700" stroke-width="1" fill="none"></path></g><g transform="translate(339.5355065276787 428.0784979515709) rotate(0 113.52649898656887 -130.62161531991325)"><path d="M200.51 -247.96 C210.88 -251.66, 221.83 -257.68, 227.97 -263.18 M200.75 -247.39 C211.64 -252.95, 222.04 -258.23, 227.07 -262.6" stroke="#e67700" stroke-width="1" fill="none"></path></g></g><g stroke-linecap="round"><g transform="translate(369.9935020352994 171.0013648393417) rotate(0 93.50562177172867 -12.724979354365715)"><path d="M-0.28 -0.01 C31.11 -4.08, 156 -19.77, 187.29 -23.85 M1.78 -1.06 C33.12 -5.5, 155.62 -21.17, 186.47 -25.44" stroke="#e67700" stroke-width="1" fill="none"></path></g><g transform="translate(369.9935020352994 171.0013648393417) rotate(0 93.50562177172867 -12.724979354365715)"><path d="M159.86 -11.15 C167.25 -13.84, 171.9 -17.46, 185.47 -24.38 M160.72 -10.96 C167.07 -15.56, 174.85 -19.25, 186.15 -25.54" stroke="#e67700" stroke-width="1" fill="none"></path></g><g transform="translate(369.9935020352994 171.0013648393417) rotate(0 93.50562177172867 -12.724979354365715)"><path d="M157.16 -31.49 C165.24 -29.78, 170.46 -29, 185.47 -24.38 M158.03 -31.3 C165.27 -30.35, 173.78 -28.51, 186.15 -25.54" stroke="#e67700" stroke-width="1" fill="none"></path></g></g><g stroke-linecap="round"><g transform="translate(368.8694667008984 116.71300386288226) rotate(0 95.3341805936862 4.7795541071202905)"><path d="M-0.02 0.22 C32.18 1.86, 160.35 7.71, 192.15 9.27 M-1.49 -0.71 C30.69 1.09, 159.04 8.41, 191.5 10.27" stroke="#e67700" stroke-width="1" fill="none"></path></g><g transform="translate(368.8694667008984 116.71300386288226) rotate(0 95.3341805936862 4.7795541071202905)"><path d="M163.14 19.84 C167.31 15.72, 173.94 13.64, 191.11 10.32 M161.84 18.25 C169.82 16.81, 178.4 13.65, 190.67 10.61" stroke="#e67700" stroke-width="1" fill="none"></path></g><g transform="translate(368.8694667008984 116.71300386288226) rotate(0 95.3341805936862 4.7795541071202905)"><path d="M164.31 -0.65 C168.14 -0.35, 174.51 2, 191.11 10.32 M163.01 -2.24 C170.52 1.75, 178.78 4.02, 190.67 10.61" stroke="#e67700" stroke-width="1" fill="none"></path></g></g><g stroke-linecap="round"><g transform="translate(369.480068320416 235.72225928643388) rotate(0 95.04358517285885 -47.84381279274557)"><path d="M-0.9 -0.22 C31 -16.33, 159.14 -79.55, 190.99 -95.46 M0.82 -1.39 C32.69 -16.85, 159.12 -78.76, 190.56 -94.35" stroke="#e67700" stroke-width="1" fill="none"></path></g><g transform="translate(369.480068320416 235.72225928643388) rotate(0 95.04358517285885 -47.84381279274557)"><path d="M169.43 -71.04 C173.77 -78.01, 178.89 -83.11, 189.05 -94.47 M170.05 -72.22 C176.41 -80.72, 182.96 -87.69, 189.62 -94.56" stroke="#e67700" stroke-width="1" fill="none"></path></g><g transform="translate(369.480068320416 235.72225928643388) rotate(0 95.04358517285885 -47.84381279274557)"><path d="M160.36 -89.45 C167.29 -91.46, 174.82 -91.67, 189.05 -94.47 M160.99 -90.63 C170.3 -93.14, 179.82 -94.07, 189.62 -94.56" stroke="#e67700" stroke-width="1" fill="none"></path></g></g><g stroke-linecap="round"><g transform="translate(366.594908657791 297.5401853806162) rotate(0 97.09084976842638 -75.78745870610895)"><path d="M0.97 -0.05 C33.41 -25.24, 162.06 -126.43, 194.16 -151.53 M0.02 -1.12 C32.39 -26.15, 161.37 -125.8, 193.49 -150.5" stroke="#e67700" stroke-width="1" fill="none"></path></g><g transform="translate(366.594908657791 297.5401853806162) rotate(0 97.09084976842638 -75.78745870610895)"><path d="M177.35 -124.29 C180.05 -132, 185.74 -139.26, 193.05 -151.12 M177.76 -124.49 C182.74 -134.82, 187.57 -143.88, 193.98 -149.74" stroke="#e67700" stroke-width="1" fill="none"></path></g><g transform="translate(366.594908657791 297.5401853806162) rotate(0 97.09084976842638 -75.78745870610895)"><path d="M164.82 -140.54 C170.72 -144.14, 179.65 -147.19, 193.05 -151.12 M165.23 -140.74 C174.73 -145.43, 183.98 -148.77, 193.98 -149.74" stroke="#e67700" stroke-width="1" fill="none"></path></g></g><g stroke-linecap="round"><g transform="translate(377.33297262185243 377.90936368357336) rotate(0 92.98902857250539 -117.96211023082793)"><path d="M-1.01 -0.59 C30.28 -40, 155.6 -196.51, 186.99 -235.63 M0.66 1.71 C31.89 -38.15, 155.22 -197.79, 186.27 -237.63" stroke="#e67700" stroke-width="1" fill="none"></path></g><g transform="translate(377.33297262185243 377.90936368357336) rotate(0 92.98902857250539 -117.96211023082793)"><path d="M176.11 -208.34 C179.48 -214.57, 182.22 -224.64, 186.12 -237.29 M176.35 -209.35 C180.19 -218.38, 183.24 -229.27, 185.27 -238.45" stroke="#e67700" stroke-width="1" fill="none"></path></g><g transform="translate(377.33297262185243 377.90936368357336) rotate(0 92.98902857250539 -117.96211023082793)"><path d="M159.89 -220.92 C167.23 -224, 173.85 -231.05, 186.12 -237.29 M160.14 -221.93 C169.42 -226.56, 177.98 -233.18, 185.27 -238.45" stroke="#e67700" stroke-width="1" fill="none"></path></g></g><g stroke-linecap="round"><g transform="translate(339.11212327709364 286.8332977294922) rotate(0 115.84007677375371 -24.377480995736235)"><path d="M0.57 -1.12 C39.06 -8.91, 192.3 -39.99, 231.11 -47.63" stroke="#364fc7" stroke-width="1.5" fill="none" stroke-dasharray="8 9"></path></g><g transform="translate(339.11212327709364 286.8332977294922) rotate(0 115.84007677375371 -24.377480995736235)"><path d="M203.62 -33.98 C214.24 -35.2, 223.39 -40.16, 231.04 -46.41" stroke="#364fc7" stroke-width="1.5" fill="none"></path></g><g transform="translate(339.11212327709364 286.8332977294922) rotate(0 115.84007677375371 -24.377480995736235)"><path d="M199.59 -54.1 C211.33 -48.98, 221.75 -47.59, 231.04 -46.41" stroke="#364fc7" stroke-width="1.5" fill="none"></path></g></g><g stroke-linecap="round"><g transform="translate(371.38862650576976 303.09381024333675) rotate(0 98.50298265758897 -33.227536897941974)"><path d="M-0.87 0.63 C32.2 -10.66, 165.07 -55.68, 197.87 -67.09" stroke="#364fc7" stroke-width="1.5" fill="none" stroke-dasharray="8 9"></path></g><g transform="translate(371.38862650576976 303.09381024333675) rotate(0 98.50298265758897 -33.227536897941974)"><path d="M175.58 -46.68 C181.66 -54.58, 186.46 -57.43, 196.42 -68.17" stroke="#364fc7" stroke-width="1.5" fill="none"></path></g><g transform="translate(371.38862650576976 303.09381024333675) rotate(0 98.50298265758897 -33.227536897941974)"><path d="M168.93 -66.09 C176.81 -68.98, 183.31 -66.87, 196.42 -68.17" stroke="#364fc7" stroke-width="1.5" fill="none"></path></g></g><g stroke-linecap="round" transform="translate(19.388626505769764 100) rotate(0 44.5 19.5)"><path d="M0.93 1.15 C23.04 -1.55, 51.01 0.05, 88.96 1.11 M87.02 -1.98 C90.35 11.15, 88.52 23.7, 90.99 38.81 M87.07 37.37 C66.98 39.2, 41.37 41.53, 1.02 39.62 M1.98 39.42 C-1.27 26.82, 0.51 12.55, 0.67 -1.29" stroke="#364fc7" stroke-width="1.5" fill="none" stroke-dasharray="8 9"></path></g><g transform="translate(24.888626505769764 105) rotate(0 40 14.5)"><text x="40" y="22" font-family="Virgil, Segoe UI Emoji" font-size="20px" fill="#364fc7" text-anchor="middle" style="white-space: pre;" direction="ltr">債券建檔</text></g><g stroke-linecap="round" transform="translate(18.888626505769764 203.5) rotate(0 44.5 19.5)"><path d="M-1.68 1.45 C28.69 -1.35, 58.91 -1.34, 88.13 1.33 M87.53 0.79 C86.76 8.67, 88.76 20.92, 90.33 39.92 M89.69 39.86 C58.89 39.18, 30.86 38.57, -1.67 37.06 M0.85 37.34 C-0.9 23.65, 0.12 7.28, -0.92 -0.49" stroke="#364fc7" stroke-width="1.5" fill="none" stroke-dasharray="8 9"></path></g><g transform="translate(24.388626505769764 208.5) rotate(0 40 14.5)"><text x="40" y="22" font-family="Virgil, Segoe UI Emoji" font-size="20px" fill="#364fc7" text-anchor="middle" style="white-space: pre;" direction="ltr">客戶建檔</text></g><g stroke-linecap="round"><g transform="translate(283.0943839016887 429.3960154035611) rotate(0 -80.36088785948465 -156.9534160776289)"><path d="M0.96 1.04 C-26.07 -51.45, -134.52 -262.38, -161.68 -314.95" stroke="#c92a2a" stroke-width="1.5" fill="none" stroke-dasharray="8 9"></path></g><g transform="translate(283.0943839016887 429.3960154035611) rotate(0 -80.36088785948465 -156.9534160776289)"><path d="M-137.91 -294.12 C-148.9 -301.48, -155.52 -308.61, -163.06 -314.96" stroke="#c92a2a" stroke-width="1.5" fill="none"></path></g><g transform="translate(283.0943839016887 429.3960154035611) rotate(0 -80.36088785948465 -156.9534160776289)"><path d="M-156.15 -284.72 C-160.88 -295.45, -161.24 -305.8, -163.06 -314.96" stroke="#c92a2a" stroke-width="1.5" fill="none"></path></g></g><g stroke-linecap="round"><g transform="translate(293.88862650576976 174.0274678717979) rotate(0 -88.49649627860632 -23.8868601959379)"><path d="M-0.08 -0.69 C-29.62 -8.72, -147.42 -39.49, -176.91 -47.08" stroke="#c92a2a" stroke-width="1.5" fill="none" stroke-dasharray="8 9"></path></g><g transform="translate(293.88862650576976 174.0274678717979) rotate(0 -88.49649627860632 -23.8868601959379)"><path d="M-148.2 -49.02 C-156.42 -48.27, -164.75 -48.53, -177.52 -47.84" stroke="#c92a2a" stroke-width="1.5" fill="none"></path></g><g transform="translate(293.88862650576976 174.0274678717979) rotate(0 -88.49649627860632 -23.8868601959379)"><path d="M-153.36 -29.15 C-160.09 -34.85, -166.74 -41.56, -177.52 -47.84" stroke="#c92a2a" stroke-width="1.5" fill="none"></path></g></g><g stroke-linecap="round"><g transform="translate(279.27609809800975 114.98006312096379) rotate(0 -82.48193495310841 -1.655578482156912)"><path d="M1.16 -0.77 C-26.52 -1.02, -138.19 -2.44, -166.12 -2.54" stroke="#c92a2a" stroke-width="1.5" fill="none" stroke-dasharray="8 9"></path></g><g transform="translate(279.27609809800975 114.98006312096379) rotate(0 -82.48193495310841 -1.655578482156912)"><path d="M-139.13 -11.73 C-148.17 -9.03, -154.57 -6.5, -165.85 -0.98" stroke="#c92a2a" stroke-width="1.5" fill="none"></path></g><g transform="translate(279.27609809800975 114.98006312096379) rotate(0 -82.48193495310841 -1.655578482156912)"><path d="M-139.31 8.79 C-148.12 5.43, -154.47 1.91, -165.85 -0.98" stroke="#c92a2a" stroke-width="1.5" fill="none"></path></g></g><g stroke-linecap="round"><g transform="translate(279.196229978241 302.6240106091577) rotate(0 -83.53877790626137 -90.050010293434)"><path d="M0.93 -0.72 C-27.12 -30.62, -140.13 -149.46, -168 -179.38" stroke="#c92a2a" stroke-width="1.5" fill="none" stroke-dasharray="8 9"></path></g><g transform="translate(279.196229978241 302.6240106091577) rotate(0 -83.53877790626137 -90.050010293434)"><path d="M-142.4 -167.89 C-149.49 -169.24, -159.63 -172.77, -169.21 -177.75" stroke="#c92a2a" stroke-width="1.5" fill="none"></path></g><g transform="translate(279.196229978241 302.6240106091577) rotate(0 -83.53877790626137 -90.050010293434)"><path d="M-157.33 -153.82 C-159.59 -159.84, -164.88 -167.93, -169.21 -177.75" stroke="#c92a2a" stroke-width="1.5" fill="none"></path></g></g><g stroke-linecap="round"><g transform="translate(279.29360481701787 376.44658905131826) rotate(0 -84.7971734717488 -72.78385902846748)"><path d="M-2.32 -0.11 C-30.05 -24.71, -140.26 -121.28, -167.28 -145.46" stroke="#343a40" stroke-width="1.5" fill="none" stroke-dasharray="1.5 7"></path></g><g transform="translate(279.29360481701787 376.44658905131826) rotate(0 -84.7971734717488 -72.78385902846748)"><path d="M-139.51 -136.71 C-147.95 -136.02, -154.99 -139.82, -164.2 -145.51" stroke="#343a40" stroke-width="1.5" fill="none" stroke-dasharray="1.5 5"></path></g><g transform="translate(279.29360481701787 376.44658905131826) rotate(0 -84.7971734717488 -72.78385902846748)"><path d="M-153.11 -121.34 C-158.15 -124.53, -161.54 -132.45, -164.2 -145.51" stroke="#343a40" stroke-width="1.5" fill="none" stroke-dasharray="1.5 5"></path></g></g><g stroke-linecap="round"><g transform="translate(285.2432922623678 310.54825206661843) rotate(0 -84.05813270974903 -44.5707698597772)"><path d="M-0.67 1.3 C-28.56 -13.51, -140.07 -75.03, -167.44 -90.44" stroke="#343a40" stroke-width="1.5" fill="none" stroke-dasharray="1.5 7"></path></g><g transform="translate(285.2432922623678 310.54825206661843) rotate(0 -84.05813270974903 -44.5707698597772)"><path d="M-135.97 -86.23 C-145.54 -84.17, -155.36 -92.41, -166.62 -91.26" stroke="#343a40" stroke-width="1.5" fill="none" stroke-dasharray="1.5 5"></path></g><g transform="translate(285.2432922623678 310.54825206661843) rotate(0 -84.05813270974903 -44.5707698597772)"><path d="M-145.94 -68.3 C-152.36 -71.5, -159.23 -85.05, -166.62 -91.26" stroke="#343a40" stroke-width="1.5" fill="none" stroke-dasharray="1.5 5"></path></g></g><g stroke-linecap="round"><g transform="translate(275.27696926750383 235.1350493189193) rotate(0 -79.17773407489014 -8.092423562320633)"><path d="M-1.12 1.79 C-27.36 -1.49, -131.25 -15.11, -157.23 -17.97" stroke="#343a40" stroke-width="1.5" fill="none" stroke-dasharray="1.5 7"></path></g><g transform="translate(275.27696926750383 235.1350493189193) rotate(0 -79.17773407489014 -8.092423562320633)"><path d="M-125.45 -27.35 C-137.17 -25.16, -142.43 -23.27, -160.49 -20.79" stroke="#343a40" stroke-width="1.5" fill="none" stroke-dasharray="1.5 5"></path></g><g transform="translate(275.27696926750383 235.1350493189193) rotate(0 -79.17773407489014 -8.092423562320633)"><path d="M-127.94 -6.98 C-139.15 -11.01, -143.65 -15.36, -160.49 -20.79" stroke="#343a40" stroke-width="1.5" fill="none" stroke-dasharray="1.5 5"></path></g></g><g stroke-linecap="round"><g transform="translate(282.96236013747745 123.83474775534762) rotate(0 -93.09915585195935 35.56498504019953)"><path d="M-0.32 1.18 C-31.2 12.47, -155.41 58.56, -185.88 69.95" stroke="#343a40" stroke-width="1.5" fill="none" stroke-dasharray="1.5 7"></path></g><g transform="translate(282.96236013747745 123.83474775534762) rotate(0 -93.09915585195935 35.56498504019953)"><path d="M-161.36 49.16 C-168.56 58.49, -175.54 58.03, -187.14 72.77" stroke="#343a40" stroke-width="1.5" fill="none" stroke-dasharray="1.5 5"></path></g><g transform="translate(282.96236013747745 123.83474775534762) rotate(0 -93.09915585195935 35.56498504019953)"><path d="M-154.2 68.39 C-163.7 72.33, -172.69 66.48, -187.14 72.77" stroke="#343a40" stroke-width="1.5" fill="none" stroke-dasharray="1.5 5"></path></g></g><g stroke-linecap="round"><g transform="translate(281.94275580752634 167.19526955948308) rotate(0 -80.47683995459224 30.349671087298475)"><path d="M1.82 1.47 C-25.77 11.37, -134.86 50.16, -162.78 59.23" stroke="#343a40" stroke-width="1.5" fill="none" stroke-dasharray="1.5 7"></path></g><g transform="translate(281.94275580752634 167.19526955948308) rotate(0 -80.47683995459224 30.349671087298475)"><path d="M-137.33 41.12 C-147.16 44.84, -161.22 57.28, -164.13 59.57" stroke="#343a40" stroke-width="1.5" fill="none" stroke-dasharray="1.5 5"></path></g><g transform="translate(281.94275580752634 167.19526955948308) rotate(0 -80.47683995459224 30.349671087298475)"><path d="M-130.68 60.53 C-143.14 56.59, -159.85 61.28, -164.13 59.57" stroke="#343a40" stroke-width="1.5" fill="none" stroke-dasharray="1.5 5"></path></g></g><g stroke-linecap="round"><g transform="translate(284.5617623570875 440.5535527826877) rotate(0 -81.58008056213566 -105.5646349078402)"><path d="M2.64 1.41 C-24.6 -33.64, -137.65 -176.3, -165.8 -212.54" stroke="#343a40" stroke-width="1.5" fill="none" stroke-dasharray="1.5 7"></path></g><g transform="translate(284.5617623570875 440.5535527826877) rotate(0 -81.58008056213566 -105.5646349078402)"><path d="M-138.3 -199.1 C-143.03 -202.63, -153.43 -204.74, -166.96 -211.89" stroke="#343a40" stroke-width="1.5" fill="none" stroke-dasharray="1.5 5"></path></g><g transform="translate(284.5617623570875 440.5535527826877) rotate(0 -81.58008056213566 -105.5646349078402)"><path d="M-154.44 -186.43 C-155.5 -192.98, -162.45 -197.8, -166.96 -211.89" stroke="#343a40" stroke-width="1.5" fill="none" stroke-dasharray="1.5 5"></path></g></g><g stroke-linecap="round"><g transform="translate(9.888626505769764 57.999999999999986) rotate(0 66.8970421660878 -0.14556038575663877)"><path d="M1.03 0.4 C23.34 0.56, 111.63 0.84, 133.68 0.73 M0.11 -0.43 C22.33 -0.6, 110.98 -1.23, 133.09 -1" stroke="#364fc7" stroke-width="1" fill="none"></path></g></g><g transform="translate(49.888626505769764 10) rotate(0 28 20)"><text x="0" y="30" font-family="Virgil, Segoe UI Emoji" font-size="28px" fill="#364fc7" text-anchor="start" style="white-space: pre;" direction="ltr">功能</text></g><g stroke-linecap="round"><g transform="translate(547.8886265057697 68.5) rotate(0 66.13787492684088 -0.6235611892305286)"><path d="M-0.23 -0.33 C22.26 -0.51, 111.9 -0.96, 134.09 -0.81 M-1.82 -1.55 C20.7 -1.62, 111.39 0.29, 133.72 0.3" stroke="#364fc7" stroke-width="1" fill="none"></path></g></g><g transform="translate(559.8886265057697 15.5) rotate(0 56 20)"><text x="0" y="30" font-family="Virgil, Segoe UI Emoji" font-size="28px" fill="#364fc7" text-anchor="start" style="white-space: pre;" direction="ltr">對外介接</text></g><g stroke-linecap="round"><g transform="translate(368.88862650576976 378.099440080327) rotate(0 99.06391630116849 -68.64982529003908)"><path d="M0.66 -0.84 C33.52 -23.56, 164.61 -114.05, 197.47 -136.46" stroke="#364fc7" stroke-width="1.5" fill="none" stroke-dasharray="8 9"></path></g><g transform="translate(368.88862650576976 378.099440080327) rotate(0 99.06391630116849 -68.64982529003908)"><path d="M178.64 -110.82 C184.32 -118.33, 191.98 -130.01, 197.3 -135.94" stroke="#364fc7" stroke-width="1.5" fill="none"></path></g><g transform="translate(368.88862650576976 378.099440080327) rotate(0 99.06391630116849 -68.64982529003908)"><path d="M167.02 -127.74 C176.5 -129.76, 187.97 -135.89, 197.3 -135.94" stroke="#364fc7" stroke-width="1.5" fill="none"></path></g></g><g stroke-linecap="round"><g transform="translate(377.21397636028615 435.92747232245875) rotate(0 105.49157424474959 -38.525742475338205)"><path d="M0.84 -0.96 C36 -13.68, 175.29 -63.72, 210.14 -76.09" stroke="#e67700" stroke-width="1.5" fill="none" stroke-dasharray="8 9"></path></g><g transform="translate(377.21397636028615 435.92747232245875) rotate(0 105.49157424474959 -38.525742475338205)"><path d="M185.44 -58.54 C191.44 -63.42, 198.32 -65.9, 208.28 -74.64" stroke="#e67700" stroke-width="1.5" fill="none"></path></g><g transform="translate(377.21397636028615 435.92747232245875) rotate(0 105.49157424474959 -38.525742475338205)"><path d="M178.54 -77.87 C186.15 -78.35, 194.62 -76.38, 208.28 -74.64" stroke="#e67700" stroke-width="1.5" fill="none"></path></g></g><g stroke-linecap="round"><g transform="translate(366.87198225366893 177.90343503125294) rotate(0 107.27189838905821 76.7270058715741)"><path d="M0.23 -0.02 C35.89 25.7, 178.79 128.11, 214.32 153.47" stroke="#e67700" stroke-width="1.5" fill="none" stroke-dasharray="8 9"></path></g><g transform="translate(366.87198225366893 177.90343503125294) rotate(0 107.27189838905821 76.7270058715741)"><path d="M185.39 145.65 C196.46 146.7, 203.73 149.01, 214.53 151.96" stroke="#e67700" stroke-width="1.5" fill="none"></path></g><g transform="translate(366.87198225366893 177.90343503125294) rotate(0 107.27189838905821 76.7270058715741)"><path d="M197.33 128.96 C204.37 135.5, 207.74 143.28, 214.53 151.96" stroke="#e67700" stroke-width="1.5" fill="none"></path></g></g><g stroke-linecap="round"><g transform="translate(365.30149498707607 121.6760502228168) rotate(0 106.12512342334725 99.86478438139936)"><path d="M0.57 0.87 C35.87 33.84, 176.36 166.13, 211.68 198.86" stroke="#e67700" stroke-width="1.5" fill="none" stroke-dasharray="8 9"></path></g><g transform="translate(365.30149498707607 121.6760502228168) rotate(0 106.12512342334725 99.86478438139936)"><path d="M185.53 187.52 C193.8 192.13, 199.13 195.65, 213.39 198.55" stroke="#e67700" stroke-width="1.5" fill="none"></path></g><g transform="translate(365.30149498707607 121.6760502228168) rotate(0 106.12512342334725 99.86478438139936)"><path d="M199.55 172.53 C203.88 181.55, 205.15 189.42, 213.39 198.55" stroke="#e67700" stroke-width="1.5" fill="none"></path></g></g><g stroke-linecap="round"><g transform="translate(366.7659689621651 237.30971537714183) rotate(0 104.31425376751633 46.215433461878035)"><path d="M-0.44 0.74 C34.4 16.09, 174.14 76.39, 209.07 91.69" stroke="#e67700" stroke-width="1.5" fill="none" stroke-dasharray="8 9"></path></g><g transform="translate(366.7659689621651 237.30971537714183) rotate(0 104.31425376751633 46.215433461878035)"><path d="M180.35 87.95 C187.59 88.66, 198.09 90.77, 207.9 89.95" stroke="#e67700" stroke-width="1.5" fill="none"></path></g><g transform="translate(366.7659689621651 237.30971537714183) rotate(0 104.31425376751633 46.215433461878035)"><path d="M188.53 69.12 C193.22 75.52, 201.24 83.33, 207.9 89.95" stroke="#e67700" stroke-width="1.5" fill="none"></path></g></g><g stroke-linecap="round"><g transform="translate(375.7529398874845 311.75207475066475) rotate(0 102.80774145090021 10.979620853355385)"><path d="M0.23 0.27 C34.66 3.99, 171.3 17.95, 205.38 21.69" stroke="#e67700" stroke-width="1.5" fill="none" stroke-dasharray="8 9"></path></g><g transform="translate(375.7529398874845 311.75207475066475) rotate(0 102.80774145090021 10.979620853355385)"><path d="M176.72 28.19 C180.3 25.51, 188 27.85, 205.43 21.6" stroke="#e67700" stroke-width="1.5" fill="none"></path></g><g transform="translate(375.7529398874845 311.75207475066475) rotate(0 102.80774145090021 10.979620853355385)"><path d="M178.87 7.78 C181.91 9.29, 189.17 15.8, 205.43 21.6" stroke="#e67700" stroke-width="1.5" fill="none"></path></g></g><g stroke-linecap="round"><g transform="translate(369.9755204874555 375.62412421987165) rotate(0 104.73380672280672 -21.636592077225515)"><path d="M0.07 -0.52 C34.93 -7.56, 174.81 -35.69, 209.4 -42.76" stroke="#e67700" stroke-width="1.5" fill="none" stroke-dasharray="8 9"></path></g><g transform="translate(369.9755204874555 375.62412421987165) rotate(0 104.73380672280672 -21.636592077225515)"><path d="M182.94 -25.8 C193.22 -33.85, 201.19 -38.81, 209.45 -44.33" stroke="#e67700" stroke-width="1.5" fill="none"></path></g><g transform="translate(369.9755204874555 375.62412421987165) rotate(0 104.73380672280672 -21.636592077225515)"><path d="M178.87 -45.91 C190.38 -47.53, 199.65 -46.05, 209.45 -44.33" stroke="#e67700" stroke-width="1.5" fill="none"></path></g></g><g stroke-linecap="round" transform="translate(288.0552829999104 214) rotate(0 35.333343505859375 24)"><path d="M1.56 1.01 C17.52 -2.65, 27.48 -3.49, 71.85 0.94 M1.23 1.08 C24.12 2.21, 43.81 -0.64, 69.94 1.52 M71.13 -1.84 C70.96 13.26, 72.56 19.82, 74.12 48.22 M72.38 1.82 C72.06 14.43, 70.06 28.89, 68.78 48.81 M74.38 46.78 C45.97 47.51, 16.22 47.62, 0.08 44.5 M71.08 47.79 C48.48 48.22, 31.99 47.14, 1.31 47.37 M3.67 48.36 C-0.61 33.88, -2.61 20.29, 0.31 -1.93 M-0.27 47.49 C-1.07 36.94, 1.27 27.73, 0.61 -0.97" stroke="#000000" stroke-width="1" fill="none"></path></g><g transform="translate(304.88859598819164 224.16665649414062) rotate(0 18.5 12.5)"><text x="18.5" y="18" font-family="Virgil, Segoe UI Emoji" font-size="20px" fill="#000000" text-anchor="middle" style="white-space: pre;" direction="ltr">IRS</text></g><g stroke-linecap="round" transform="translate(16.888626505769764 290.5) rotate(0 44.5 19.5)"><path d="M-0.52 -0.93 C16.47 0.72, 37.94 0.05, 87.78 0.9 M88.99 0.34 C88.83 14.83, 89.6 29.13, 87.49 40.39 M87.21 39.41 C67.1 40.01, 41.84 40.44, -0.68 37.56 M1.12 37.98 C0.38 26.95, -0.94 14.77, 0.13 -0.17" stroke="#364fc7" stroke-width="1.5" fill="none" stroke-dasharray="8 9"></path></g><g transform="translate(32.388626505769764 295.5) rotate(0 30 14.5)"><text x="30" y="22" font-family="Virgil, Segoe UI Emoji" font-size="20px" fill="#364fc7" text-anchor="middle" style="white-space: pre;" direction="ltr">假日檔</text></g><g stroke-linecap="round" transform="translate(596.8886265057697 398.00001525878906) rotate(0 41.5 24)"><path d="M-0.14 -0.52 C23.05 -1.47, 50.12 -0.13, 83.36 -1.96 M-0.92 0.06 C20.33 -0.73, 41.76 -0.25, 82.59 0.51 M81.76 -0.71 C83.92 14.03, 82.08 26.75, 83.37 47.66 M83.17 0.64 C84.21 12.92, 82.49 24.36, 82.3 48.91 M81.67 48.89 C53.06 48.47, 20.32 47.38, 1.84 49.25 M83.96 47.61 C51.88 47.08, 19.49 47.7, -0.51 49 M1.8 48.96 C-0.28 31.27, -0.84 13.33, -1.97 0.39 M0.92 47.81 C-0.51 34.08, 0 21.08, -0.71 0.48" stroke="#000000" stroke-width="1" fill="none"></path></g><g transform="translate(618.3886265057697 407.50001525878906) rotate(0 20 14.5)"><text x="20" y="22" font-family="Virgil, Segoe UI Emoji" font-size="20px" fill="#000000" text-anchor="middle" style="white-space: pre;" direction="ltr">帳務</text></g><g stroke-linecap="round"><g transform="translate(365.0905768542828 109.85907232116347) rotate(0 111.61925811397856 149.69463587117014)"><path d="M-0.62 1.19 C36.88 50.89, 186.67 248.59, 223.86 298.19" stroke="#364fc7" stroke-width="1.5" fill="none" stroke-dasharray="1.5 7"></path></g><g transform="translate(365.0905768542828 109.85907232116347) rotate(0 111.61925811397856 149.69463587117014)"><path d="M200.68 282.92 C204.64 284.18, 210.85 289.68, 223.75 298.38" stroke="#364fc7" stroke-width="1.5" fill="none" stroke-dasharray="1.5 5"></path></g><g transform="translate(365.0905768542828 109.85907232116347) rotate(0 111.61925811397856 149.69463587117014)"><path d="M217.06 270.56 C217.65 274.29, 220.5 282.32, 223.75 298.38" stroke="#364fc7" stroke-width="1.5" fill="none" stroke-dasharray="1.5 5"></path></g></g><g stroke-linecap="round"><g transform="translate(367.2754761058184 174.13084319296658) rotate(0 111.1813723836375 122.81254657704946)"><path d="M0.85 -0.1 C37.72 40.89, 184.82 204.59, 221.51 245.73" stroke="#364fc7" stroke-width="1.5" fill="none" stroke-dasharray="1.5 7"></path></g><g transform="translate(367.2754761058184 174.13084319296658) rotate(0 111.1813723836375 122.81254657704946)"><path d="M194.89 232.65 C201.97 236.18, 212.29 238.75, 220.27 244.65" stroke="#364fc7" stroke-width="1.5" fill="none" stroke-dasharray="1.5 5"></path></g><g transform="translate(367.2754761058184 174.13084319296658) rotate(0 111.1813723836375 122.81254657704946)"><path d="M210.17 218.96 C212.25 227.05, 217.6 234.08, 220.27 244.65" stroke="#364fc7" stroke-width="1.5" fill="none" stroke-dasharray="1.5 5"></path></g></g><g stroke-linecap="round"><g transform="translate(368.45387725898064 241.63290748174666) rotate(0 108.98967152687732 89.62048990812718)"><path d="M-0.33 1.14 C36 30.75, 181.82 148.96, 218.31 178.1" stroke="#364fc7" stroke-width="1.5" fill="none" stroke-dasharray="1.5 7"></path></g><g transform="translate(368.45387725898064 241.63290748174666) rotate(0 108.98967152687732 89.62048990812718)"><path d="M191.81 167.11 C201.21 170.82, 207 173.74, 217.59 177.18" stroke="#364fc7" stroke-width="1.5" fill="none" stroke-dasharray="1.5 5"></path></g><g transform="translate(368.45387725898064 241.63290748174666) rotate(0 108.98967152687732 89.62048990812718)"><path d="M204.69 151.13 C209.94 160.03, 211.51 168.17, 217.59 177.18" stroke="#364fc7" stroke-width="1.5" fill="none" stroke-dasharray="1.5 5"></path></g></g><g stroke-linecap="round"><g transform="translate(371.34393770054913 311.540482434513) rotate(0 110.21259360875018 54.89230399106262)"><path d="M-1.19 -0.11 C35.92 18.26, 184.38 91.46, 221.62 109.89" stroke="#364fc7" stroke-width="1.5" fill="none" stroke-dasharray="1.5 7"></path></g><g transform="translate(371.34393770054913 311.540482434513) rotate(0 110.21259360875018 54.89230399106262)"><path d="M191.62 105.38 C198.85 107.37, 206.05 108.4, 221.31 110.52" stroke="#364fc7" stroke-width="1.5" fill="none" stroke-dasharray="1.5 5"></path></g><g transform="translate(371.34393770054913 311.540482434513) rotate(0 110.21259360875018 54.89230399106262)"><path d="M200.71 86.98 C205.99 92.73, 211.28 97.63, 221.31 110.52" stroke="#364fc7" stroke-width="1.5" fill="none" stroke-dasharray="1.5 5"></path></g></g><g stroke-linecap="round"><g transform="translate(372.71168141209506 374.2971824745405) rotate(0 107.33113232928343 26.074882851658458)"><path d="M-0.75 -0.84 C34.97 7.82, 179.51 44.29, 215.41 52.99" stroke="#364fc7" stroke-width="1.5" fill="none" stroke-dasharray="1.5 7"></path></g><g transform="translate(372.71168141209506 374.2971824745405) rotate(0 107.33113232928343 26.074882851658458)"><path d="M184.18 57.05 C198.58 54.71, 207.62 53.84, 216.69 51.6" stroke="#364fc7" stroke-width="1.5" fill="none" stroke-dasharray="1.5 5"></path></g><g transform="translate(372.71168141209506 374.2971824745405) rotate(0 107.33113232928343 26.074882851658458)"><path d="M189.12 37.13 C201.75 42.58, 208.86 49.51, 216.69 51.6" stroke="#364fc7" stroke-width="1.5" fill="none" stroke-dasharray="1.5 5"></path></g></g><g stroke-linecap="round"><g transform="translate(374.4469428214523 446.90067355546535) rotate(0 110.16833534951337 -10.098127629117982)"><path d="M0.36 -0.13 C36.86 -3.42, 183.48 -16.6, 219.98 -20.07" stroke="#364fc7" stroke-width="1.5" fill="none" stroke-dasharray="1.5 7"></path></g><g transform="translate(374.4469428214523 446.90067355546535) rotate(0 110.16833534951337 -10.098127629117982)"><path d="M192.64 -7.19 C203.83 -13.17, 212.68 -17.46, 218.84 -20.89" stroke="#364fc7" stroke-width="1.5" fill="none" stroke-dasharray="1.5 5"></path></g><g transform="translate(374.4469428214523 446.90067355546535) rotate(0 110.16833534951337 -10.098127629117982)"><path d="M190.76 -27.62 C202.61 -25.82, 212.17 -22.34, 218.84 -20.89" stroke="#364fc7" stroke-width="1.5" fill="none" stroke-dasharray="1.5 5"></path></g></g><g stroke-linecap="round"><g transform="translate(282.0210665162279 104.42595822922532) rotate(0 -85.75035866014656 103.35766754104952)"><path d="M-1.18 0.08 C-29.42 34.72, -141.96 171.93, -170.33 206.63" stroke="#5f3dc4" stroke-width="1.5" fill="none" stroke-dasharray="8 9"></path></g><g transform="translate(282.0210665162279 104.42595822922532) rotate(0 -85.75035866014656 103.35766754104952)"><path d="M-160.26 178.51 C-164.07 183.21, -163.6 189.51, -169.01 207.56" stroke="#5f3dc4" stroke-width="1.5" fill="none"></path></g><g transform="translate(282.0210665162279 104.42595822922532) rotate(0 -85.75035866014656 103.35766754104952)"><path d="M-144.39 191.51 C-151.71 193.08, -154.88 196.39, -169.01 207.56" stroke="#5f3dc4" stroke-width="1.5" fill="none"></path></g></g><g stroke-linecap="round"><g transform="translate(279.6086482472345 177.73970100088786) rotate(0 -78.46956596411758 64.06677673384347)"><path d="M0.2 0.47 C-26.08 21.84, -131.06 106.18, -157.14 127.66" stroke="#5f3dc4" stroke-width="1.5" fill="none" stroke-dasharray="8 9"></path></g><g transform="translate(279.6086482472345 177.73970100088786) rotate(0 -78.46956596411758 64.06677673384347)"><path d="M-140.94 100.43 C-148.65 110.73, -151.08 118.25, -158.37 127.47" stroke="#5f3dc4" stroke-width="1.5" fill="none"></path></g><g transform="translate(279.6086482472345 177.73970100088786) rotate(0 -78.46956596411758 64.06677673384347)"><path d="M-128 116.36 C-140.06 121.24, -146.91 123.31, -158.37 127.47" stroke="#5f3dc4" stroke-width="1.5" fill="none"></path></g></g><g stroke-linecap="round"><g transform="translate(277.07354669790715 244.79717926457727) rotate(0 -80.64952921047802 37.86091166995263)"><path d="M1.07 1.09 C-25.97 13.51, -135.11 62.4, -162.37 74.63" stroke="#5f3dc4" stroke-width="1.5" fill="none" stroke-dasharray="8 9"></path></g><g transform="translate(277.07354669790715 244.79717926457727) rotate(0 -80.64952921047802 37.86091166995263)"><path d="M-139.02 51.96 C-148.49 58.07, -154.97 64.26, -163.91 74.11" stroke="#5f3dc4" stroke-width="1.5" fill="none"></path></g><g transform="translate(277.07354669790715 244.79717926457727) rotate(0 -80.64952921047802 37.86091166995263)"><path d="M-130.63 70.69 C-142.53 71.46, -151.45 72.23, -163.91 74.11" stroke="#5f3dc4" stroke-width="1.5" fill="none"></path></g></g><g stroke-linecap="round"><g transform="translate(283.45877983678116 301.1860258597901) rotate(0 -82.46863325014706 3.3898128058741293)"><path d="M-1.08 -1.07 C-28.55 0.19, -136.76 6.27, -163.86 7.85" stroke="#5f3dc4" stroke-width="1.5" fill="none" stroke-dasharray="8 9"></path></g><g transform="translate(283.45877983678116 301.1860258597901) rotate(0 -82.46863325014706 3.3898128058741293)"><path d="M-138.07 -2.86 C-147.28 1.71, -156.78 2.77, -162.86 9.44" stroke="#5f3dc4" stroke-width="1.5" fill="none"></path></g><g transform="translate(283.45877983678116 301.1860258597901) rotate(0 -82.46863325014706 3.3898128058741293)"><path d="M-136.9 17.63 C-146.61 14.44, -156.54 7.76, -162.86 9.44" stroke="#5f3dc4" stroke-width="1.5" fill="none"></path></g></g><g stroke-linecap="round"><g transform="translate(288.15801979634904 367.89811415635245) rotate(0 -89.43225708492093 -27.696315564962248)"><path d="M0.5 0.89 C-29.34 -8.33, -149.41 -46.97, -179.36 -56.29" stroke="#5f3dc4" stroke-width="1.5" fill="none" stroke-dasharray="8 9"></path></g><g transform="translate(288.15801979634904 367.89811415635245) rotate(0 -89.43225708492093 -27.696315564962248)"><path d="M-147.9 -59.07 C-158.74 -58.35, -164.69 -58.28, -179.88 -55.11" stroke="#5f3dc4" stroke-width="1.5" fill="none"></path></g><g transform="translate(288.15801979634904 367.89811415635245) rotate(0 -89.43225708492093 -27.696315564962248)"><path d="M-154.1 -39.51 C-163.11 -44.1, -167.39 -49.31, -179.88 -55.11" stroke="#5f3dc4" stroke-width="1.5" fill="none"></path></g></g><g stroke-linecap="round"><g transform="translate(286.1140280171855 431.77094215601886) rotate(0 -82.3240156941115 -50.37613980360527)"><path d="M0.11 0.56 C-27.53 -16.27, -137.21 -84.07, -164.76 -101.31" stroke="#5f3dc4" stroke-width="1.5" fill="none" stroke-dasharray="8 9"></path></g><g transform="translate(286.1140280171855 431.77094215601886) rotate(0 -82.3240156941115 -50.37613980360527)"><path d="M-134.46 -95.41 C-145 -98.46, -159.1 -100.49, -165.77 -102.61" stroke="#5f3dc4" stroke-width="1.5" fill="none"></path></g><g transform="translate(286.1140280171855 431.77094215601886) rotate(0 -82.3240156941115 -50.37613980360527)"><path d="M-145.29 -77.98 C-151.54 -87.85, -161.41 -96.7, -165.77 -102.61" stroke="#5f3dc4" stroke-width="1.5" fill="none"></path></g></g><g stroke-linecap="round" transform="translate(16.388626505769764 388.50001525878906) rotate(0 44.5 19.5)"><path d="M-1.7 1.45 C25.24 -1.21, 49.61 1.83, 89.28 1.83 M88.46 -0.5 C87.18 13.59, 89.11 30.66, 88.74 39.91 M87.98 40.75 C72.32 38.08, 50.31 39.76, 1.14 37.91 M0.3 37.41 C1.38 27.21, -1.97 19.73, 0.47 1.92" stroke="#364fc7" stroke-width="1.5" fill="none" stroke-dasharray="8 9"></path></g><g transform="translate(54.888626505769764 395.50001525878906) rotate(0 7 12.5)"><text x="7" y="18" font-family="Virgil, Segoe UI Emoji" font-size="20px" fill="#364fc7" text-anchor="middle" style="white-space: pre;" direction="ltr">…</text></g><g stroke-linecap="round" transform="translate(595.3886265057697 487.00001525878906) rotate(0 41.5 24)"><path d="M1.35 1.18 C21.99 0.3, 47.79 0.52, 81.49 0.79 M-0.56 -0.22 C28.13 -0.42, 54.43 -0.26, 82.5 -0.62 M82.39 1.29 C82.77 8.41, 84.42 21.35, 83.53 46.61 M82.52 -0.84 C83.59 16.94, 82.49 34.06, 83.15 48.41 M81.31 48.4 C62.6 47.05, 44.11 45.59, 1.55 49.97 M83.45 47.56 C50.47 49.43, 17.17 48.15, -0.11 47.28 M0.39 49.37 C2.04 37.33, -0.48 25.2, 0.12 -1.49 M0.91 48.71 C0.36 33.01, -0.56 18.53, -0.4 0.46" stroke="#000000" stroke-width="1" fill="none"></path></g><g transform="translate(629.8886265057697 498.50001525878906) rotate(0 7 12.5)"><text x="7" y="18" font-family="Virgil, Segoe UI Emoji" font-size="20px" fill="#5f3dc4" text-anchor="middle" style="white-space: pre;" direction="ltr">…</text></g><g stroke-linecap="round" transform="translate(287.5552829999104 492.00001525878906) rotate(0 35.333343505859375 24)"><path d="M-3.36 3.88 C15.76 0.17, 32.24 1.3, 72.32 -2.3 M0.4 -0.26 C22.29 2.58, 43.28 2.74, 72.64 1.99 M68.91 2.48 C74.3 17.95, 69.2 31.73, 67.77 44.71 M72.03 1.63 C69.52 9.4, 67.85 20.69, 69.18 48.01 M73.52 50.07 C44.87 47.68, 21.13 47.67, 1.86 44.09 M70.41 48.14 C48.08 49.18, 24.38 49.54, -1.06 49.06 M3.66 49.13 C3.37 33.86, 3.68 28.95, 3.43 -1.88 M-0.86 46.8 C2.85 34.64, -0.72 15.74, 0.39 -0.92" stroke="#000000" stroke-width="1" fill="none"></path></g><g transform="translate(318.88859598819164 503.1666717529297) rotate(0 7 12.5)"><text x="7" y="18" font-family="Virgil, Segoe UI Emoji" font-size="20px" fill="#000000" text-anchor="middle" style="white-space: pre;" direction="ltr">…</text></g></svg>